<?xml version="1.0" encoding="utf-8"?>
<!-- Generator: Adobe Illustrator 17.0.0, SVG Export Plug-In . SVG Version: 6.00 Build 0)  -->
<!DOCTYPE svg PUBLIC "-//W3C//DTD SVG 1.1//EN" "http://www.w3.org/Graphics/SVG/1.1/DTD/svg11.dtd">
<svg version="1.1" id="Layer_1" xmlns="http://www.w3.org/2000/svg" xmlns:xlink="http://www.w3.org/1999/xlink" x="0px" y="0px"
	 width="429.167px" height="193.444px" viewBox="0 0 429.167 193.444" enable-background="new 0 0 429.167 193.444"
	 xml:space="preserve">
<g>
	<path d="M37.046,49.152c-1.558,1.314-3.516,3.328-5.782,4.477c-3.081,1.562-6.286,2.615-8.973,5.302
		c-0.612,0.612-6.118,34.056,11.915,35.466c2.284-3.93-0.168-11.438-1.022-15.776c-0.722-3.662-2.086-5.813-2.258-9.591
		c-0.151-3.302,1.262-10.853,4.038-15.901"/>
	<path fill="#A1794E" d="M26.419,165.66c0,0-0.591,6.632,0.691,9.658l5.452,1.879c0,0,1.612,1.206-0.546,0.821
		c-5.111-0.914-9.002-1.889-9.002-1.889s-0.025-6.402-3.889-5.374l-2.718-3.437l2.985-3.576L26.419,165.66z"/>
	<path d="M20.634,169.447l-0.117,0.573c0,0,2.683,1.148,2.915,4.471l0.119,1.031l3.56-0.204l5.452,1.879c0,0,1.371,0.849-0.03,0.849
		l-9.518-1.916c0,0,0.318-5.9-3.889-5.374l-2.718-3.437l1.894-1.423"/>
	<path fill="#A1794E" d="M82.929,167.426c0,0,5.061,6.038,7.773,7.46l5.322,1.506c0,0,2.271,0.27-0.983,0.625
		c-3.254,0.355-8.317-0.181-8.317-0.181s-2.892-2.839-5.965-1.595l-3.976-0.889v-4.265L82.929,167.426z"/>
	<path d="M90.702,174.886c0,0-0.034,1.302-2.771,1.602l-0.911,0.199c0,0-1.419-1.991-5.373-2.192l-5.067-0.299l4.156,1.296
		c0,0,3.363-1.189,5.988,1.345l7.795,0.447c0,0,4.46-0.3,1.505-0.892L90.702,174.886z"/>
	<path d="M41.258,108.454c0,0-0.479,19.349-2.161,25.249c-1.132,3.971-2.642,7.552-9.607,17.226
		c-3.433,4.77-12.508,15.321-13.71,16.501c0,0,8.407,4.247,11.048,7.787c0,0,0.178-4.039,4.323-10.618
		c6.244-9.912,14.431-21.93,15.633-28.064c0,0,1.44-10.382,3.361-21.001C52.067,104.915,41.258,108.454,41.258,108.454z"/>
	<path d="M54.228,101.847c0,0,7.446,17.933,15.372,28.789c0,0,15.086,38.063,19.89,43.019c0,0-6.726,1.181-12.97-0.944
		c0,0-2.163-10.618-7.686-21.708c-2.691-5.404-3.798-9.748-4.038-12.343c-0.24-2.596-2.882-5.899-6.725-10.619
		c-3.843-4.719-17.053-16.99-18.493-20.765c-1.443-3.776-1.682-7.315-1.682-7.315L54.228,101.847z"/>
	<path fill="#F29247" d="M55.426,34.647c0.167,0.384,0.167,1.843,0.328,2.291c0,0,1.138,2.182,2.569,2.778
		c0,0-0.009,0.496-0.378,0.732c-0.546,0.354-0.819,0.745-0.783,1.251c0.041,0.67,0.242,0.35,0.242,0.35s0.153,0.218-0.36,0.412
		c-0.631,0.233-0.766,0.384-0.766,0.384l0.266,0.318c0,0,0.249,0.486-0.274,0.603l-0.565,0.112l0.272,1.966
		c0,0,0.016,0.671-0.734,0.514c-1.668-0.351-7.259-1.851-7.499-3.03C47.004,39.698,50.861,24.273,55.426,34.647z"/>
	<path fill="#4B2331" d="M54.601,37.478c0,0,0.558,0.126,0.649,0.214c0,0-1.432,1.611-3.513-0.442
		C51.738,37.25,53.656,37.683,54.601,37.478z"/>
	<path fill="#381C09" d="M53.628,31.41c5.164-0.119,0.15,3.668-0.254,4.695c0.38-0.678,0.539-1.421,0.725-2.158
		c-0.78,0.65-0.979,1.773-2.123,1.942c0.238-0.428,0.282-0.806,0.314-1.267c-0.498,0.542-1.18,0.775-1.894,0.993
		c0.164-1.657,1.428-4.544,3.592-4.324"/>
	<path fill="#EB003A" d="M55.429,31.292c0,0-4.562,5.428-5.284,9.675c-0.72,4.248-1.201,9.439-2.162,12.271
		c0,0,1.682,15.102,0,20.293c-1.681,5.191-1.922,15.574,0.48,19.114c2.403,3.539,7.686,7.314,7.686,7.314s0.24,1.18-1.922,1.888
		c-2.161,0.708-15.852,1.651-18.253-2.36c0,0-8.646,1.416-1.681-40.115c1.89-11.266,6.966-15.574,6.966-15.574l-1.681-6.371
		c0,0,0.48-11.091,3.602-11.563c3.123-0.472,10.088,3.775,10.088,3.775L55.429,31.292z"/>
	<path fill="none" stroke="#EB003A" stroke-width="0.4978" d="M49.603,44.293c-0.688,11.589,14.081,16.599,13.378,28.031
		c-0.973,15.815-13.246,8.212-15.265,1.649"/>
	<path fill="#333333" d="M52.286,102.347c-0.853,3.881-3.689,7.386-5.396,8.543c-0.61-0.422-1.538-1.203-1.993-1.734
		c2.058-1.881,4.17-3.496,5.117-6.809H52.286z"/>
	<path fill="#333333" d="M50.298,106.701c0,0,14.387,24.61,16.659,27.072c0,0,14.388,38.807,16.47,39.944
		c0,0-1.325,0.378-3.218-0.379l-14.578-38.555l-17.227-25.809L50.298,106.701z"/>
	<path fill="#C9003A" d="M54.228,101.847l0.929,1.762c0,0-14.893-1.514-16.408,0.757l-1.766-3.786
		C36.983,100.581,51.03,103.114,54.228,101.847z"/>
	<path fill="#C9003A" d="M41.979,46.866c1.681-0.708,5.101-0.306,3.843,3.54c-4.324,13.214-7.206,22.417-7.446,25.485
		c-0.24,3.068,5.284,19.113,10.088,29.968l-3.362,2.596c0,0-12.73-19.114-12.969-32.092c0,0,0.72-11.327,7.205-25.721
		C39.339,50.641,40.298,47.573,41.979,46.866z"/>
	<path fill="#F6F9CD" d="M44.572,47.213c-0.009,0.009-0.926,0.947-1.657,2.955l-0.647,1.643c-1.782,4.434-6.514,16.212-7.48,24.436
		c0.006,0.06,0.702,9.836,11.714,30.739l-0.359,0.189C35.08,86.176,34.388,76.332,34.383,76.235
		c0.974-8.313,5.721-20.128,7.507-24.576l0.645-1.63c0.764-2.101,1.711-3.063,1.751-3.103L44.572,47.213z"/>
	<path d="M48.595,53.38c0.304-2.379-0.929-6.018-2.764-7.896c-1.645-1.682-2.821-1.446-4.556-0.182
		c-3.484,2.536-6.816,6.815-9.591,11.359c0.204,0.348,0.174,2.788,0.504,3.029c4.29-9.844,14.387-21.203,15.649-3.029"/>
</g>
<g>
	<rect x="101.944" y="41.846" fill="none" width="231.713" height="88.16"/>
	<path d="M138.232,58.693h-6.696c-0.528-2.976-1.752-5.436-3.672-7.38c-1.92-1.944-4.44-2.939-7.56-2.988
		c-1.393,0-2.676,0.241-3.852,0.72c-1.177,0.48-2.148,1.033-2.916,1.656c-1.2,0.912-2.208,2.064-3.024,3.456
		c-0.816,1.393-1.296,2.977-1.44,4.752c-0.192,2.064-0.216,4.26-0.072,6.588c0.144,2.329,0.167,4.716,0.072,7.164
		c1.536,0.097,3.144,0.12,4.824,0.072c1.68-0.047,3.335-0.047,4.968,0v6.624c-1.537,0.097-3.145,0.121-4.824,0.072
		c-1.681-0.047-3.337-0.047-4.968,0v15.48h-6.768V66.901c0-1.584-0.024-3.155-0.072-4.716c-0.048-1.559-0.025-3.083,0.072-4.572
		c0.191-2.016,0.731-3.936,1.62-5.76c0.888-1.824,2.027-3.456,3.42-4.896c1.392-1.44,2.988-2.616,4.788-3.528
		c1.8-0.912,3.683-1.464,5.652-1.656c1.824-0.191,3.503-0.18,5.04,0.036c1.536,0.216,2.927,0.576,4.176,1.08
		c1.248,0.504,2.399,1.141,3.456,1.908c1.055,0.769,2.016,1.609,2.88,2.52c1.392,1.44,2.531,3.085,3.42,4.932
		C137.644,54.098,138.136,56.246,138.232,58.693h-6.696c-0.528-2.976-1.752-5.436-3.672-7.38c-1.92-1.944-4.44-2.939-7.56-2.988
		c-1.393,0-2.676,0.241-3.852,0.72c-1.177,0.48-2.148,1.033-2.916,1.656c-1.2,0.912-2.208,2.064-3.024,3.456
		c-0.816,1.393-1.296,2.977-1.44,4.752c-0.192,2.064-0.216,4.26-0.072,6.588c0.144,2.329,0.167,4.716,0.072,7.164
		c1.536,0.097,3.144,0.12,4.824,0.072c1.68-0.047,3.335-0.047,4.968,0v6.624c-1.537,0.097-3.145,0.121-4.824,0.072
		c-1.681-0.047-3.337-0.047-4.968,0v15.48h-6.768V66.901c0-1.584-0.024-3.155-0.072-4.716c-0.048-1.559-0.025-3.083,0.072-4.572
		c0.191-2.016,0.731-3.936,1.62-5.76c0.888-1.824,2.027-3.456,3.42-4.896c1.392-1.44,2.988-2.616,4.788-3.528
		c1.8-0.912,3.683-1.464,5.652-1.656c1.824-0.191,3.503-0.18,5.04,0.036c1.536,0.216,2.927,0.576,4.176,1.08
		c1.248,0.504,2.399,1.141,3.456,1.908c1.055,0.769,2.016,1.609,2.88,2.52c1.392,1.44,2.531,3.085,3.42,4.932
		C137.644,54.098,138.136,56.246,138.232,58.693h-6.696c-0.528-2.976-1.752-5.436-3.672-7.38c-1.92-1.944-4.44-2.939-7.56-2.988
		c-1.393,0-2.676,0.241-3.852,0.72c-1.177,0.48-2.148,1.033-2.916,1.656c-1.2,0.912-2.208,2.064-3.024,3.456
		c-0.816,1.393-1.296,2.977-1.44,4.752c-0.192,2.064-0.216,4.26-0.072,6.588c0.144,2.329,0.167,4.716,0.072,7.164
		c1.536,0.097,3.144,0.12,4.824,0.072c1.68-0.047,3.335-0.047,4.968,0v6.624c-1.537,0.097-3.145,0.121-4.824,0.072
		c-1.681-0.047-3.337-0.047-4.968,0v15.48h-6.768V66.901c0-1.584-0.024-3.155-0.072-4.716c-0.048-1.559-0.025-3.083,0.072-4.572
		c0.191-2.016,0.731-3.936,1.62-5.76c0.888-1.824,2.027-3.456,3.42-4.896c1.392-1.44,2.988-2.616,4.788-3.528
		c1.8-0.912,3.683-1.464,5.652-1.656c1.824-0.191,3.503-0.18,5.04,0.036c1.536,0.216,2.927,0.576,4.176,1.08
		c1.248,0.504,2.399,1.141,3.456,1.908c1.055,0.769,2.016,1.609,2.88,2.52c1.392,1.44,2.531,3.085,3.42,4.932
		C137.644,54.098,138.136,56.246,138.232,58.693z"/>
	<path d="M174.52,95.125h-6.552c-0.097-0.527-0.121-1.14-0.072-1.836c0.047-0.695,0.024-1.307-0.072-1.836
		c-0.673,0.385-1.332,0.781-1.98,1.188c-0.648,0.408-1.332,0.781-2.052,1.116c-1.152,0.529-2.484,0.925-3.996,1.188
		c-1.512,0.265-3.157,0.324-4.932,0.18c-2.257-0.191-4.284-0.756-6.084-1.692c-1.8-0.936-3.396-2.076-4.788-3.42
		c-1.393-1.343-2.556-2.904-3.492-4.68c-0.936-1.775-1.524-3.768-1.764-5.976c-0.192-1.728-0.18-3.323,0.036-4.788
		c0.216-1.463,0.576-2.808,1.08-4.032s1.091-2.34,1.764-3.348c0.671-1.008,1.392-1.896,2.16-2.664
		c1.104-1.104,2.388-2.099,3.852-2.988c1.464-0.888,3.084-1.523,4.86-1.908c0.767-0.191,1.764-0.324,2.988-0.396
		c1.224-0.072,2.364-0.06,3.42,0.036c2.208,0.241,4.188,0.84,5.94,1.8c1.752,0.961,3.276,2.113,4.572,3.456
		c1.296,1.296,2.423,2.844,3.384,4.644c0.96,1.8,1.56,3.78,1.8,5.94c0.191,1.632,0.239,3.301,0.144,5.004
		c-0.097,1.704-0.144,3.396-0.144,5.076c0,1.681,0.011,3.337,0.036,4.968C174.651,91.79,174.615,93.446,174.52,95.125z
		 M149.104,68.917c-0.576,0.529-1.128,1.165-1.656,1.908c-0.529,0.745-0.961,1.573-1.296,2.484
		c-0.336,0.912-0.565,1.884-0.684,2.916c-0.121,1.033-0.061,2.124,0.18,3.276c0.24,1.152,0.684,2.268,1.332,3.348
		s1.451,2.041,2.412,2.88c0.959,0.84,2.063,1.501,3.312,1.98c1.248,0.48,2.592,0.72,4.032,0.72c1.584,0,3.035-0.324,4.356-0.972
		c1.319-0.648,2.459-1.451,3.42-2.412c0.959-0.911,1.775-2.027,2.448-3.348c0.672-1.32,0.983-2.844,0.936-4.572
		c0-1.584-0.324-3.06-0.972-4.428c-0.648-1.368-1.38-2.459-2.196-3.276c-0.96-1.055-2.232-1.944-3.816-2.664
		c-1.584-0.72-3.312-0.959-5.184-0.72C152.943,66.374,150.735,67.333,149.104,68.917z"/>
	<path d="M210.447,73.381h-6.912c-0.673-2.16-1.872-4.02-3.6-5.58c-1.728-1.56-3.913-2.459-6.552-2.7
		c-0.48-0.096-0.961-0.096-1.44,0c-1.969,0.144-3.612,0.637-4.932,1.476c-1.321,0.84-2.46,1.861-3.42,3.06
		c0.479,0.385,1.02,0.66,1.62,0.828c0.6,0.169,1.164,0.373,1.692,0.612c3.889,1.44,7.823,2.905,11.809,4.392
		c3.983,1.488,7.895,2.977,11.735,4.464c-0.24,2.064-0.816,3.949-1.728,5.652c-0.912,1.705-2.064,3.181-3.456,4.428
		c-0.864,0.816-1.789,1.56-2.772,2.232c-0.984,0.673-2.076,1.249-3.275,1.728c-1.2,0.48-2.521,0.828-3.96,1.044
		c-1.44,0.216-3.024,0.229-4.752,0.036c-2.16-0.24-4.117-0.816-5.868-1.728c-1.753-0.912-3.301-1.968-4.644-3.168
		c-2.689-2.496-4.44-5.879-5.256-10.152c1.104-0.096,2.256-0.119,3.456-0.072c1.199,0.048,2.376,0.048,3.528,0
		c0.623,2.113,1.823,3.972,3.6,5.58c1.775,1.608,3.96,2.532,6.552,2.772c1.392,0.097,2.652-0.047,3.78-0.432
		c1.127-0.384,2.124-0.839,2.988-1.368c0.527-0.288,1.031-0.635,1.512-1.044c0.479-0.407,0.864-0.875,1.152-1.404
		c-4.513-1.728-9-3.408-13.464-5.04c-4.464-1.631-8.928-3.312-13.392-5.04c1.152-5.567,3.719-9.695,7.704-12.384
		c1.584-1.104,3.372-1.991,5.364-2.664c1.991-0.672,4.403-0.864,7.236-0.576c2.159,0.241,4.115,0.804,5.867,1.692
		c1.752,0.889,3.3,1.957,4.645,3.204C208.046,65.821,209.774,69.206,210.447,73.381z"/>
	<path d="M211.382,42.206h6.624v20.808c0.911-0.432,1.787-0.912,2.628-1.44c0.839-0.528,1.811-0.96,2.916-1.296
		c2.976-0.959,5.832-1.199,8.567-0.72c2.736,0.48,5.172,1.452,7.309,2.916c2.135,1.465,3.888,3.312,5.256,5.544
		s2.171,4.644,2.412,7.236c0.144,1.584,0.216,3.204,0.216,4.86c0,1.656-0.036,3.312-0.108,4.968
		c-0.071,1.656-0.133,3.324-0.18,5.004c-0.049,1.681-0.024,3.384,0.072,5.112h-6.696c-0.097-1.631-0.12-3.24-0.072-4.824
		s0.096-3.132,0.145-4.644c0.047-1.512,0.083-3.012,0.107-4.5c0.024-1.487-0.036-2.999-0.18-4.536
		c-0.144-1.68-0.588-3.24-1.332-4.68c-0.745-1.44-1.728-2.639-2.952-3.6c-1.224-0.959-2.616-1.631-4.176-2.016
		c-1.561-0.384-3.229-0.407-5.004-0.072c-1.152,0.241-2.244,0.648-3.276,1.224c-1.032,0.576-1.943,1.309-2.735,2.196
		c-0.792,0.889-1.453,1.908-1.98,3.06c-0.528,1.152-0.84,2.4-0.936,3.744c-0.145,1.537-0.205,3.073-0.181,4.608
		c0.023,1.537,0.072,3.084,0.145,4.644c0.071,1.56,0.119,3.121,0.144,4.68c0.023,1.561-0.012,3.132-0.107,4.716h-6.696V42.494
		C211.31,42.302,211.333,42.206,211.382,42.206z"/>
	<path d="M248.317,56.246c-0.097-2.352-0.144-4.812-0.144-7.38c0-2.567,0.047-5.004,0.144-7.308h6.624
		c-0.048,2.448-0.048,4.921,0,7.416c0.048,2.496,0.024,4.92-0.071,7.272H248.317z M254.87,58.837
		c0.096,5.904,0.119,11.869,0.071,17.892c-0.048,6.024-0.048,12.06,0,18.108h-6.695V59.125c0-0.191,0.023-0.288,0.071-0.288H254.87z
		"/>
	<path d="M271.141,59.125c1.631-0.191,3.191-0.191,4.68,0c1.487,0.192,2.855,0.529,4.104,1.008c1.248,0.48,2.4,1.08,3.456,1.8
		c1.056,0.72,1.991,1.488,2.809,2.304c1.631,1.633,2.987,3.661,4.067,6.084c1.08,2.425,1.451,5.341,1.116,8.748
		c-0.24,2.208-0.84,4.201-1.8,5.976c-0.961,1.776-2.088,3.312-3.384,4.608c-1.296,1.345-2.833,2.484-4.608,3.42
		c-1.776,0.936-3.792,1.524-6.048,1.764c-1.681,0.192-3.24,0.18-4.68-0.036c-1.44-0.216-2.784-0.576-4.032-1.08
		c-1.249-0.504-2.376-1.104-3.384-1.8c-1.008-0.695-1.921-1.451-2.736-2.268c-0.769-0.767-1.501-1.656-2.196-2.664
		c-0.696-1.008-1.296-2.124-1.8-3.348s-0.864-2.567-1.08-4.032c-0.216-1.463-0.229-3.06-0.036-4.788
		c0.24-2.304,0.828-4.308,1.765-6.012c0.936-1.703,2.027-3.179,3.275-4.428c1.009-1.008,2.088-1.883,3.24-2.628
		c1.152-0.744,2.472-1.379,3.96-1.908c0.479-0.144,0.983-0.276,1.512-0.396C269.869,59.33,270.468,59.222,271.141,59.125z
		 M266.029,68.629c-0.816,0.72-1.537,1.561-2.16,2.52c-0.624,0.961-1.08,2.088-1.368,3.384c-0.097,0.48-0.18,0.96-0.252,1.44
		c-0.072,0.48-0.084,0.96-0.036,1.44c0.191,2.736,1.104,5.04,2.736,6.912c1.631,1.872,3.672,3.072,6.12,3.6
		c0.432,0.097,0.888,0.169,1.368,0.216c0.479,0.048,0.983,0.072,1.512,0.072c1.44-0.096,2.783-0.432,4.032-1.008
		c1.247-0.576,2.351-1.332,3.312-2.268c0.96-0.936,1.739-2.052,2.34-3.348c0.6-1.296,0.947-2.711,1.044-4.248v-0.864
		c-0.097-1.824-0.528-3.384-1.296-4.68c-0.768-1.296-1.632-2.376-2.592-3.24c-0.961-0.864-2.148-1.584-3.563-2.16
		c-1.417-0.576-2.916-0.767-4.5-0.576c-1.537,0.192-2.82,0.504-3.853,0.936C267.84,67.189,266.893,67.814,266.029,68.629z"/>
	<path d="M328.379,94.622h-6.624v-9.288c0-1.824,0.036-3.719,0.108-5.688c0.072-1.968-0.061-3.744-0.396-5.328
		c-0.288-1.248-0.768-2.423-1.439-3.528c-0.673-1.104-1.501-2.052-2.484-2.844c-0.984-0.792-2.101-1.415-3.348-1.872
		c-1.249-0.456-2.568-0.66-3.96-0.612c-2.16,0.048-4.093,0.648-5.796,1.8c-1.705,1.152-3.013,2.568-3.924,4.248
		c-0.433,0.816-0.745,1.764-0.937,2.844c-0.192,1.08-0.313,2.221-0.36,3.42c-0.048,1.201-0.061,2.448-0.035,3.744
		c0.023,1.296,0.035,2.592,0.035,3.888v9.144c-1.056,0.097-2.159,0.121-3.312,0.072c-1.152-0.047-2.28-0.047-3.384,0V79.357
		c0-0.864-0.025-1.715-0.072-2.556c-0.049-0.839-0.024-1.667,0.072-2.484c0.144-1.248,0.443-2.459,0.899-3.636
		c0.456-1.176,0.947-2.196,1.477-3.06c1.151-1.919,2.556-3.564,4.212-4.932s3.636-2.436,5.939-3.204
		c0.96-0.288,2.1-0.504,3.42-0.648s2.676-0.167,4.068-0.072c2.207,0.241,4.2,0.828,5.977,1.764c1.774,0.936,3.358,2.077,4.752,3.42
		c1.247,1.296,2.351,2.856,3.312,4.68c0.96,1.825,1.56,3.816,1.8,5.976c0.096,0.817,0.119,1.656,0.072,2.52
		c-0.049,0.864-0.072,1.705-0.072,2.52V94.622z"/>
</g>
<g>
	<rect x="101.657" y="94.957" fill="none" width="263.981" height="88.16"/>
	<path fill="#EB003A" d="M137.945,111.804h-6.696c-0.528-2.976-1.752-5.436-3.672-7.38c-1.92-1.944-4.44-2.939-7.56-2.988
		c-1.393,0-2.676,0.241-3.852,0.72c-1.177,0.48-2.148,1.033-2.916,1.656c-1.2,0.912-2.208,2.064-3.024,3.456
		c-0.816,1.393-1.296,2.977-1.44,4.752c-0.192,2.064-0.216,4.26-0.072,6.588c0.144,2.329,0.167,4.716,0.072,7.164
		c1.536,0.097,3.144,0.12,4.824,0.072c1.68-0.047,3.335-0.047,4.968,0v6.624c-1.537,0.097-3.145,0.121-4.824,0.072
		c-1.681-0.047-3.337-0.047-4.968,0v15.48h-6.768v-28.008c0-1.584-0.024-3.155-0.072-4.716c-0.048-1.559-0.025-3.083,0.072-4.572
		c0.191-2.016,0.731-3.936,1.62-5.76c0.888-1.824,2.027-3.456,3.42-4.896c1.392-1.44,2.988-2.616,4.788-3.528
		c1.8-0.912,3.683-1.464,5.652-1.656c1.824-0.191,3.503-0.18,5.04,0.036c1.536,0.216,2.927,0.576,4.176,1.08
		c1.248,0.504,2.399,1.141,3.456,1.908c1.055,0.769,2.016,1.609,2.88,2.52c1.392,1.44,2.531,3.085,3.42,4.932
		C137.356,107.209,137.848,109.356,137.945,111.804h-6.696c-0.528-2.976-1.752-5.436-3.672-7.38c-1.92-1.944-4.44-2.939-7.56-2.988
		c-1.393,0-2.676,0.241-3.852,0.72c-1.177,0.48-2.148,1.033-2.916,1.656c-1.2,0.912-2.208,2.064-3.024,3.456
		c-0.816,1.393-1.296,2.977-1.44,4.752c-0.192,2.064-0.216,4.26-0.072,6.588c0.144,2.329,0.167,4.716,0.072,7.164
		c1.536,0.097,3.144,0.12,4.824,0.072c1.68-0.047,3.335-0.047,4.968,0v6.624c-1.537,0.097-3.145,0.121-4.824,0.072
		c-1.681-0.047-3.337-0.047-4.968,0v15.48h-6.768v-28.008c0-1.584-0.024-3.155-0.072-4.716c-0.048-1.559-0.025-3.083,0.072-4.572
		c0.191-2.016,0.731-3.936,1.62-5.76c0.888-1.824,2.027-3.456,3.42-4.896c1.392-1.44,2.988-2.616,4.788-3.528
		c1.8-0.912,3.683-1.464,5.652-1.656c1.824-0.191,3.503-0.18,5.04,0.036c1.536,0.216,2.927,0.576,4.176,1.08
		c1.248,0.504,2.399,1.141,3.456,1.908c1.055,0.769,2.016,1.609,2.88,2.52c1.392,1.44,2.531,3.085,3.42,4.932
		C137.356,107.209,137.848,109.356,137.945,111.804h-6.696c-0.528-2.976-1.752-5.436-3.672-7.38c-1.92-1.944-4.44-2.939-7.56-2.988
		c-1.393,0-2.676,0.241-3.852,0.72c-1.177,0.48-2.148,1.033-2.916,1.656c-1.2,0.912-2.208,2.064-3.024,3.456
		c-0.816,1.393-1.296,2.977-1.44,4.752c-0.192,2.064-0.216,4.26-0.072,6.588c0.144,2.329,0.167,4.716,0.072,7.164
		c1.536,0.097,3.144,0.12,4.824,0.072c1.68-0.047,3.335-0.047,4.968,0v6.624c-1.537,0.097-3.145,0.121-4.824,0.072
		c-1.681-0.047-3.337-0.047-4.968,0v15.48h-6.768v-28.008c0-1.584-0.024-3.155-0.072-4.716c-0.048-1.559-0.025-3.083,0.072-4.572
		c0.191-2.016,0.731-3.936,1.62-5.76c0.888-1.824,2.027-3.456,3.42-4.896c1.392-1.44,2.988-2.616,4.788-3.528
		c1.8-0.912,3.683-1.464,5.652-1.656c1.824-0.191,3.503-0.18,5.04,0.036c1.536,0.216,2.927,0.576,4.176,1.08
		c1.248,0.504,2.399,1.141,3.456,1.908c1.055,0.769,2.016,1.609,2.88,2.52c1.392,1.44,2.531,3.085,3.42,4.932
		C137.356,107.209,137.848,109.356,137.945,111.804z"/>
	<path fill="#EB003A" d="M174.232,148.236h-6.552c-0.097-0.527-0.121-1.14-0.072-1.836c0.047-0.695,0.024-1.307-0.072-1.836
		c-0.673,0.385-1.332,0.781-1.98,1.188c-0.648,0.408-1.332,0.781-2.052,1.116c-1.152,0.529-2.484,0.925-3.996,1.188
		c-1.512,0.265-3.157,0.324-4.932,0.18c-2.257-0.191-4.284-0.756-6.084-1.692c-1.8-0.936-3.396-2.076-4.788-3.42
		c-1.393-1.343-2.556-2.904-3.492-4.68c-0.936-1.775-1.524-3.768-1.764-5.976c-0.192-1.728-0.18-3.323,0.036-4.788
		c0.216-1.463,0.576-2.808,1.08-4.032s1.091-2.34,1.764-3.348c0.671-1.008,1.392-1.896,2.16-2.664
		c1.104-1.104,2.388-2.099,3.852-2.988c1.464-0.888,3.084-1.523,4.86-1.908c0.767-0.191,1.764-0.324,2.988-0.396
		c1.224-0.072,2.364-0.06,3.42,0.036c2.208,0.241,4.188,0.84,5.94,1.8c1.752,0.961,3.276,2.113,4.572,3.456
		c1.296,1.296,2.423,2.844,3.384,4.644c0.96,1.8,1.56,3.78,1.8,5.94c0.191,1.632,0.239,3.301,0.144,5.004
		c-0.097,1.704-0.144,3.396-0.144,5.076c0,1.681,0.011,3.337,0.036,4.968C174.364,144.901,174.328,146.557,174.232,148.236z
		 M148.816,122.028c-0.576,0.529-1.128,1.165-1.656,1.908c-0.529,0.745-0.961,1.573-1.296,2.484
		c-0.336,0.912-0.565,1.884-0.684,2.916c-0.121,1.033-0.061,2.124,0.18,3.276c0.24,1.152,0.684,2.268,1.332,3.348
		s1.451,2.041,2.412,2.88c0.959,0.84,2.063,1.501,3.312,1.98c1.248,0.48,2.592,0.72,4.032,0.72c1.584,0,3.035-0.324,4.356-0.972
		c1.319-0.648,2.459-1.451,3.42-2.412c0.959-0.911,1.775-2.027,2.448-3.348c0.672-1.32,0.983-2.844,0.936-4.572
		c0-1.584-0.324-3.06-0.972-4.428c-0.648-1.368-1.38-2.459-2.196-3.276c-0.96-1.055-2.232-1.944-3.816-2.664
		c-1.584-0.72-3.312-0.959-5.184-0.72C152.656,119.485,150.447,120.444,148.816,122.028z"/>
	<path fill="#EB003A" d="M210.159,125.556c-1.104,0.049-2.28,0.072-3.527,0.072c-1.249,0-2.425-0.023-3.528-0.072
		c-0.288-0.432-0.54-0.864-0.756-1.296c-0.216-0.432-0.468-0.839-0.756-1.224c-0.913-1.199-2.053-2.207-3.42-3.024
		c-1.368-0.815-2.988-1.296-4.86-1.44c-0.48-0.047-0.961-0.047-1.44,0c-2.977,0.241-5.448,1.357-7.416,3.348
		c-1.969,1.992-3.072,4.5-3.312,7.524c-0.097,1.825,0.227,3.468,0.972,4.932c0.744,1.465,1.596,2.676,2.556,3.636
		c0.911,0.913,2.027,1.681,3.348,2.304c1.319,0.625,2.819,0.961,4.5,1.008c1.343,0,2.604-0.227,3.78-0.684
		c1.175-0.456,2.195-1.019,3.06-1.692c0.911-0.671,1.667-1.44,2.269-2.304c0.6-0.864,1.139-1.824,1.619-2.88
		c1.104-0.095,2.279-0.144,3.528-0.144c1.248,0,2.423,0.048,3.528,0.144c-0.48,2.16-1.177,3.985-2.088,5.472
		c-0.913,1.488-2.064,2.856-3.456,4.104c-1.633,1.44-3.553,2.641-5.761,3.6c-2.208,0.96-4.944,1.321-8.208,1.08
		c-2.256-0.144-4.319-0.708-6.191-1.692c-1.872-0.983-3.504-2.124-4.896-3.42c-0.817-0.767-1.584-1.667-2.304-2.7
		c-0.72-1.032-1.332-2.184-1.836-3.456c-0.504-1.271-0.864-2.652-1.08-4.14c-0.216-1.487-0.229-3.096-0.036-4.824
		c0.24-2.304,0.828-4.332,1.764-6.084c0.936-1.752,2.027-3.251,3.276-4.5c1.152-1.2,2.436-2.208,3.852-3.024
		c1.416-0.815,3.06-1.463,4.932-1.944c0.815-0.191,1.823-0.335,3.024-0.432c1.199-0.095,2.351-0.095,3.455,0
		c2.063,0.192,3.936,0.72,5.616,1.584c1.68,0.864,3.144,1.849,4.393,2.952c1.343,1.249,2.472,2.617,3.384,4.104
		C209.055,121.933,209.728,123.637,210.159,125.556z"/>
	<path fill="#EB003A" d="M211.383,94.884h6.624v17.136c1.535,0.144,3.143,0.192,4.823,0.144c1.68-0.047,3.336-0.047,4.969,0v6.696
		h-9.721c0,2.113-0.048,4.188-0.144,6.228c-0.097,2.041-0.072,3.949,0.072,5.724c0.239,2.88,1.332,5.292,3.275,7.236
		c1.944,1.944,4.403,3.037,7.38,3.276c1.584,0.097,3.048-0.108,4.393-0.612c1.343-0.504,2.531-1.224,3.563-2.16
		s1.872-2.052,2.521-3.348c0.647-1.296,1.091-2.688,1.332-4.176c1.104,0.048,2.243,0.048,3.42,0
		c1.176-0.047,2.268-0.023,3.275,0.072c-0.144,2.448-0.647,4.608-1.512,6.48c-0.864,1.872-1.992,3.553-3.384,5.04
		c-1.633,1.728-3.697,3.132-6.192,4.212c-2.496,1.08-5.472,1.476-8.928,1.188c-2.304-0.191-4.332-0.78-6.084-1.764
		c-1.753-0.983-3.276-2.124-4.572-3.42s-2.424-2.819-3.384-4.572c-0.961-1.751-1.561-3.78-1.8-6.084
		c-0.145-1.44-0.18-2.952-0.108-4.536c0.072-1.584,0.108-3.168,0.108-4.752V95.244C211.214,95.053,211.238,94.933,211.383,94.884z"
		/>
	<path fill="#EB003A" d="M263.51,112.236c1.631-0.191,3.191-0.191,4.68,0c1.487,0.192,2.855,0.529,4.104,1.008
		c1.248,0.48,2.4,1.08,3.456,1.8c1.056,0.72,1.991,1.488,2.809,2.304c1.631,1.633,2.987,3.661,4.067,6.084
		c1.08,2.425,1.451,5.341,1.116,8.748c-0.24,2.208-0.84,4.201-1.8,5.976c-0.961,1.776-2.088,3.312-3.384,4.608
		c-1.296,1.345-2.833,2.484-4.608,3.42c-1.776,0.936-3.792,1.524-6.048,1.764c-1.681,0.192-3.24,0.18-4.68-0.036
		c-1.44-0.216-2.784-0.576-4.032-1.08c-1.249-0.504-2.376-1.104-3.384-1.8c-1.008-0.695-1.921-1.451-2.736-2.268
		c-0.769-0.767-1.501-1.656-2.196-2.664c-0.696-1.008-1.296-2.124-1.8-3.348s-0.864-2.567-1.08-4.032
		c-0.216-1.463-0.229-3.06-0.036-4.788c0.24-2.304,0.828-4.308,1.765-6.012c0.936-1.703,2.027-3.179,3.275-4.428
		c1.009-1.008,2.088-1.883,3.24-2.628c1.152-0.744,2.472-1.379,3.96-1.908c0.479-0.144,0.983-0.276,1.512-0.396
		C262.237,112.441,262.837,112.333,263.51,112.236z M258.397,121.74c-0.816,0.72-1.537,1.561-2.16,2.52
		c-0.624,0.961-1.08,2.088-1.368,3.384c-0.097,0.48-0.18,0.96-0.252,1.44c-0.072,0.48-0.084,0.96-0.036,1.44
		c0.191,2.736,1.104,5.04,2.736,6.912c1.631,1.872,3.672,3.072,6.12,3.6c0.432,0.097,0.888,0.169,1.368,0.216
		c0.479,0.048,0.983,0.072,1.512,0.072c1.44-0.096,2.783-0.432,4.032-1.008c1.247-0.576,2.351-1.332,3.312-2.268
		c0.96-0.936,1.739-2.052,2.34-3.348c0.6-1.296,0.947-2.711,1.044-4.248v-0.864c-0.097-1.824-0.528-3.384-1.296-4.68
		c-0.768-1.296-1.632-2.376-2.592-3.24c-0.961-0.864-2.148-1.584-3.563-2.16c-1.417-0.576-2.916-0.767-4.5-0.576
		c-1.537,0.192-2.82,0.504-3.853,0.936C260.209,120.3,259.262,120.925,258.397,121.74z"/>
	<path fill="#EB003A" d="M319.885,126.78c-1.105,0.097-2.245,0.133-3.421,0.108c-1.177-0.023-2.34-0.036-3.491-0.036
		c-0.864-2.352-2.124-4.272-3.78-5.76c-1.656-1.487-3.9-2.328-6.732-2.52c-1.393-0.096-2.771,0.108-4.14,0.612
		c-1.368,0.504-2.532,1.164-3.492,1.98c-1.151,1.008-2.064,2.185-2.735,3.528c-0.673,1.344-1.129,2.952-1.368,4.824
		c-0.145,1.44-0.181,2.94-0.108,4.5c0.072,1.56,0.108,3.108,0.108,4.644v9.216c-1.057,0.097-2.16,0.133-3.313,0.108
		c-1.151-0.023-2.28-0.036-3.384-0.036v-15.408c0-0.864-0.023-1.728-0.072-2.592c-0.047-0.864-0.023-1.68,0.072-2.448
		c0.096-1.248,0.384-2.459,0.864-3.636c0.479-1.175,0.983-2.22,1.512-3.132c1.104-1.919,2.508-3.575,4.212-4.968
		c1.703-1.392,3.708-2.471,6.012-3.24c0.912-0.288,2.04-0.504,3.385-0.648c1.343-0.144,2.711-0.167,4.104-0.072
		c2.16,0.241,4.14,0.817,5.94,1.728c1.8,0.913,3.323,1.993,4.571,3.24c1.344,1.296,2.46,2.761,3.349,4.392
		C318.864,122.797,319.5,124.669,319.885,126.78z"/>
	<path fill="#EB003A" d="M320.963,112.596h6.553c0.144,2.304,0.155,4.68,0.035,7.128c-0.12,2.448-0.168,4.813-0.144,7.092
		c0.023,2.28,0.239,4.381,0.648,6.3c0.407,1.92,1.188,3.528,2.34,4.824c1.631,1.776,3.516,2.88,5.651,3.312s4.2,0.3,6.192-0.396
		c1.991-0.695,3.708-1.908,5.148-3.636c1.439-1.728,2.278-3.839,2.52-6.336c0.144-1.487,0.204-2.963,0.18-4.428
		c-0.024-1.464-0.061-2.94-0.107-4.428c-0.049-1.487-0.097-3.012-0.145-4.572c-0.048-1.56-0.024-3.179,0.072-4.86h6.624v37.8
		c0,2.111,0.047,4.223,0.144,6.336c0.096,2.112,0.048,4.2-0.144,6.264c-0.144,2.016-0.66,3.935-1.548,5.76
		c-0.889,1.824-2.017,3.444-3.384,4.86c-1.368,1.416-2.952,2.58-4.752,3.492c-1.801,0.911-3.708,1.463-5.725,1.656
		c-2.88,0.335-5.508,0.144-7.884-0.576c-2.376-0.72-4.428-1.849-6.156-3.384c-1.728-1.537-3.12-3.409-4.176-5.616
		c-1.057-2.208-1.728-4.633-2.016-7.272h6.768c0.145,1.487,0.527,2.855,1.152,4.104c0.623,1.248,1.439,2.34,2.447,3.276
		c1.009,0.936,2.16,1.656,3.456,2.16c1.297,0.504,2.688,0.731,4.177,0.684c1.584-0.048,3.023-0.336,4.319-0.864
		c1.296-0.529,2.412-1.26,3.349-2.196c0.936-0.936,1.691-2.041,2.268-3.312c0.576-1.272,0.937-2.677,1.08-4.212
		c0.239-2.592,0.264-5.292,0.072-8.1c-0.192-2.808-0.216-5.724-0.072-8.748c-0.864,0.529-1.776,1.02-2.736,1.476
		c-0.96,0.457-1.969,0.864-3.023,1.224c-1.057,0.36-2.185,0.625-3.384,0.792c-1.201,0.169-2.497,0.204-3.889,0.108
		c-2.016-0.191-3.948-0.72-5.796-1.584c-1.849-0.864-3.492-1.992-4.932-3.384c-1.44-1.392-2.628-3.012-3.564-4.86
		c-0.936-1.847-1.501-3.852-1.691-6.012c-0.145-1.536-0.205-3.096-0.181-4.68s0.06-3.192,0.108-4.824
		c0.047-1.631,0.096-3.276,0.144-4.932c0.048-1.656,0.024-3.323-0.071-5.004C320.795,112.74,320.819,112.596,320.963,112.596z"/>
</g>
<path fill="none" stroke="#56300F" stroke-width="0.5" d="M332.173,33.169c0.033,19.356-11.732,23.673-23.803,34.681
	c-14.495,13.214-15.342,38.646-2.625,44.864"/>
<path fill="#3F3F3F" d="M334.064,9.524c0,0,2.738-0.276,3.261,4.591l-2.631-0.177c0,0-0.315-2.837-3.153-2.837"/>
<path fill="#EB9755" d="M395.516,86.885l9.038,48.568l2.074,21.486l3.108,2.825l-7.912-2.259l2.685-3.96l-0.988-5.227l-4.805-4.096
	c0,0-1.065-0.922,0-3.11c1.066-2.187,3.918-3.42,3.532-5.933c0,0-6.732-22.784-15.622-39.019c-4.399-8.037-0.772-15.46-0.772-15.46
	l7.732-2.706L395.516,86.885z"/>
<path fill="#EB9755" d="M347.198,100.026L381.601,74.9c0,0,5.411-3.479,9.662-2.706c0,0,1.934,1.546,2.708,6.958
	c0,0-5.798,1.547-9.279,5.025c-3.477,3.479-31.31,38.27-43.68,36.722c0,0-8.117,1.547-9.664-2.704L347.198,100.026z"/>
<path fill="#E46D22" d="M375.826,154.819c1.35-1.505,3.153-3.23,5.087-5.936c0,0,1.269-9.521,1.269-18.8
	c0-9.28-1.546-33.246,3.866-39.043l-13.241,5.797l12.628-13.797c0,0,6.797-4.372,12.98-2.438c0,0-16.773,66.847-19.48,82.693
	C378.934,163.296,375.469,155.217,375.826,154.819z"/>
<path fill="#040003" d="M337.146,41.658c0,0,9.665,11.596,15.077,11.983c0,0-1.161,5.411-3.865,9.277c0,0,1.548,14.689,1.158,19.714
	c0,0-1.932,13.143-2.318,17.396l-15.463,19.328c0,0-4.638-11.983-2.319-18.94c2.319-6.959,8.117-17.396,8.117-23.195
	c0-5.798-3.863-18.94-6.184-23.966c-2.319-5.026,0.774-13.144,0.774-13.144L337.146,41.658z"/>
<path fill="#5B4247" d="M332.739,30.794c0,0-0.23,6.226-1.004,10.478l6.768,1.494c0,0-2.936-1.942-3.229-9.295
	C335.136,30.105,332.739,30.794,332.739,30.794z"/>
<path fill="#56300F" d="M339.684,15.803c-0.418-1.456-5.823-3.456-9.452-3.37c-2.294,0.056-4.413,0.883-4.926,1.599
	c-0.426,0.598-11.733,12.201-7.32,15.354c0.598,0.426,8.196,8.512,10.403,11.033c7.095,8.109-3.053,12.569-2.207,12.295
	c9.772-3.152,5.074-23.562,5.103-25.283c0.028-1.96-0.249-4.177,0.213-6.083c0.348-1.45,1.443-1.873,2.496-2.792
	c1.172-1.029,2.452-1.787,3.703-2.699c0.605-0.441,2.499,0.917,2.375,0.11"/>
<path fill="#F29247" d="M343.525,20.546c0.252,0.585,0.252,2.798,0.487,3.476c0,0,1.333,2.055,3.471,2.963
	c0,0-0.016,0.751-0.567,1.111c-0.812,0.534-1.221,1.127-1.169,1.896c0.065,1.014,0.36,1.249,0.36,1.249s0.23,0.33-0.536,0.622
	c-0.94,0.357-1.14,0.582-1.14,0.582l0.397,0.485c0,0,0.372,0.734-0.409,0.91l-0.842,0.17l-0.314,2.444c0,0,0.024,1.017-1.094,0.777
	c-2.482-0.533-6.103-1.43-10.653-5.951C327.535,27.327,336.734,4.81,343.525,20.546z"/>
<path fill="#ED9758" d="M331.148,26.77c-0.888-0.732-1.366-1.8-2.732-1.655c-0.798,1.481,2.845,6.811,4.41,5.735"/>
<path fill="#4B2331" d="M342.295,24.843c0,0,1.157,0.963,1.939,0.919c0,0-2.83,1.663-5.929-1.454
	C338.305,24.309,340.888,25.15,342.295,24.843z"/>
<path opacity="0.75" fill="#ED693D" d="M335.97,26.764c-0.58,0.908,0.142,2.4,1.608,3.33c1.466,0.93,3.118,0.949,3.697,0.043
	c0.573-0.909-0.144-2.4-1.61-3.329C338.197,25.876,336.543,25.859,335.97,26.764z"/>
<g>
	<g>
		<path fill="#FFFFFF" d="M328.243,33.584c0,2.815,2.283,5.096,5.096,5.096c2.815,0,5.095-2.281,5.095-5.096
			c0-2.813-2.28-5.094-5.095-5.094C330.526,28.489,328.243,30.77,328.243,33.584z M328.88,33.711c0-2.461,2-4.458,4.459-4.458
			c2.464,0,4.46,1.997,4.46,4.458c0,2.462-1.996,4.458-4.46,4.458C330.88,38.169,328.88,36.173,328.88,33.711z"/>
	</g>
</g>
<path fill="#56300F" d="M340.305,16.219c-7.901,4.16-4.301,22.859-8.004,22.859c0.04,0.054-5.063-1.38-5.097-1.439
	c-1.424-1.469,1.06-8.884,0.296-10.987c-0.82-2.269,4.279-15.216,11.766-11.68"/>
<path fill="#FFFFFF" d="M347.389,97.516c0,0-7.923,5.412-18.36,4.444c0,0-0.578,3.094-0.387,4.445c0,0,12.37-1.351,18.556-7.538
	L347.389,97.516z"/>
<circle fill="#C2C2C2" cx="332.488" cy="27.81" r="5.675"/>
<circle fill="#3F3F3F" cx="332.33" cy="27.651" r="3.311"/>
<path fill="#85B1BC" d="M332.488,22.135c0,0-1.263-11.98,3.153-12.611h-3.784c0,0-2.522,2.523-1.26,12.926L332.488,22.135z"/>
<path fill="#E57127" d="M318.429,81.189c0,0,15.468-25.555,18.662-28.327c0,0,0.918-1.593,0.754-3.457
	c-0.206-2.355-3.127-4.655-4.503-3.005c-2.363,2.837-15.635,26.644-15.635,26.644L318.429,81.189z"/>
<g>
	<g>
		<path fill="#E98C47" d="M333.293,43.984l1.883-2.899c0,0-0.863-9.443,2.079-10.722c0,0-1.518-0.607-2.272,1.418
			c-0.754,2.025-0.652,4.681-1.841,4.062l-1.313-3.94c0,0,0.631-5.179-0.914-6.449l0.064,5.983l0.829,4.292l-1.653-4.093
			c0,0-0.102-6.981-1.29-7.599l0.28,7.306l2.691,13.696L333.293,43.984z"/>
	</g>
	<path fill="#E98C47" d="M331.818,44.54l-4.191-8.044c0,0-1-5.958-2.027-7.465c0,0,0.57-0.214,1.641,2.452
		c1.071,2.667,2.351,5.712,2.351,5.712l2.421,2.615L331.818,44.54z"/>
	<path fill="#E98C47" d="M328.61,36.844l-0.572-4.812c0,0,0.013-4.642-0.439-6.365c0,0,1.423,1.878,1.313,4.009
		c-0.11,2.132,1.647,7.961,3.261,9.639C333.784,40.995,328.61,36.844,328.61,36.844z"/>
</g>
<path fill="#E98C47" d="M333.294,43.357l-15.077,38.036c0,0-5.338-4.018-3.118-9.929c2.218-5.911,11.263-16.751,17.092-28.79
	C333.433,40.105,333.294,43.357,333.294,43.357z"/>
<path fill="#EB003A" d="M396.03,117.375l9.892-4.095l-0.848,21.617c0,0,2.968,15.118,2.119,20.91l5.087,5.935l-10.456-4.238
	c0,0,5.51-7.915-1.696-11.729c0,0-1.978,3.108-1.836,10.597l-0.566-0.283c0,0,0.566-9.891,0.283-12.433l-0.564-1.413
	c0,0,5.793-4.944,3.532-11.023L396.03,117.375z"/>
<path fill="#EB003A" d="M381.635,126.793l10.705-0.061l-8.945,19.698c0,0-2.958,15.12-5.931,20.166l2.471,7.414l-8.082-7.87
	c0,0,8.089-5.249,2.856-11.501c0,0-3.004,2.131-5.699,9.122l-0.418-0.477c0,0,4.256-8.947,4.954-11.407l0.011-1.523
	c0,0,7.23-2.393,7.432-8.872L381.635,126.793z"/>
<path fill="#E46D22" d="M352.612,106.171c0,0,1.494,0.666,2.324-1.327c0.833-1.995,0.833-4.652,1.995-3.988l1.162,3.988
	c0,0-0.833,5.151,0.664,6.48l0.166-5.982l-0.664-4.32l1.496,4.153c0,0-0.167,6.98,0.995,7.644v-7.312l-0.769-4.908
	c0.87,1.997,1.092,4.891,0.94,6.579c-0.191,2.125,1.159,4.059,1.159,4.059c-0.387-1.739-0.194-6.378-0.194-6.378l-0.158-1.996
	c0.3,0.824,0.626,1.719,0.931,2.576c0.97,2.706,1.548,2.514,1.548,2.514c-0.968-1.545-1.739-7.537-1.739-7.537l-3.76-7.954
	l-0.117-0.745l-0.29,0.194l-8.784-9.279l-0.771,5.22l8.072,5.257l-1.715,2.429C355.102,95.538,355.6,105.009,352.612,106.171z
	 M359.727,98.972l-0.054-0.332l0.496,0.577C360.018,99.131,359.871,99.046,359.727,98.972z"/>
<path fill="#040003" d="M348.792,99.149l-2.638,20.91c0,0-9.231,4.334-14.419-0.704l15.463-20.488L348.792,99.149z"/>
<path fill="#370308" d="M390.238,131.93c0,0-4.522,0.187-10.36-1.507l0.753,2.635l8.287,1.321L390.238,131.93z"/>
<polygon fill="#FFFFFF" points="385.762,130.936 385.65,131.633 382.826,131.179 382.488,133.273 385.313,133.728 385.172,134.602 
	381.684,134.042 382.275,130.373 "/>
<path fill="#370308" d="M405.834,117.249c0,0-4.27,1.913-10.528,2.537l1.74,2.224l8.465-1.923L405.834,117.249z"/>
<g>
</g>
<g>
</g>
<g>
</g>
<g>
</g>
<g>
</g>
<g>
</g>
</svg>
